<?xml version="1.0" encoding="UTF-8" standalone="no"?>
<!DOCTYPE svg PUBLIC "-//W3C//DTD SVG 1.1//EN" "http://www.w3.org/Graphics/SVG/1.1/DTD/svg11.dtd">
<svg width="100%" height="100%" viewBox="0 0 800 800" version="1.1" xmlns="http://www.w3.org/2000/svg" xmlns:xlink="http://www.w3.org/1999/xlink" xml:space="preserve" xmlns:serif="http://www.serif.com/" style="fill-rule:evenodd;clip-rule:evenodd;stroke-linecap:round;stroke-linejoin:round;">
    <path d="M100,566.667L100,233.333C100,196.514 129.848,166.667 166.667,166.667L319.526,166.667C328.367,166.667 336.847,170.179 343.097,176.43L400,233.333L633.333,233.333C670.153,233.333 700,263.181 700,300L700,566.667C700,603.487 670.153,633.333 633.333,633.333L166.667,633.333C129.848,633.333 100,603.487 100,566.667Z" style="fill:none;fill-rule:nonzero;stroke:black;stroke-width:66.67px;"/>
    <g transform="matrix(0.440172,0,0,0.429563,110.218,255.321)">
        <path d="M372.527,384.332C390.742,358.767 388.709,331.843 376.079,283.411C351.1,187.627 361.046,135.128 447.158,72.972L489.187,42.635L499.353,93.463C510.156,147.48 527.898,180.89 573.453,245.155C575.262,247.707 575.262,247.707 577.08,250.271C642.699,342.847 666.667,398.654 666.667,500C666.667,622.945 542.379,733.333 400,733.333C257.614,733.333 133.333,622.96 133.333,500C133.333,497.702 133.336,497.771 132.946,487.615C129.934,409.06 144.46,347.579 203.236,281.195C215.654,267.17 229.769,253.689 245.654,240.79L280.721,212.315L297.589,254.219C310.053,285.182 324.657,309.522 341.154,327.384C355.126,342.512 365.491,361.536 372.527,384.332ZM253.15,325.389C207.904,376.491 197.147,422.02 199.564,485.061C200.014,496.797 200,496.384 200,500C200,584.263 292.787,666.667 400,666.667C507.205,666.667 600,584.249 600,500C600,415.274 581.058,371.168 522.691,288.823C520.883,286.273 520.883,286.273 519.064,283.708C483.618,233.704 462.489,198.92 448.511,160.017C425.683,187.373 427.025,214.58 440.588,266.589C465.567,362.373 455.62,414.872 369.509,477.028L320.409,512.468L316.728,452.026C314.377,413.408 305.635,387.185 292.18,372.616C278.886,358.223 266.882,341.371 256.118,322.093C255.114,323.189 254.125,324.287 253.15,325.389Z"/>
    </g>
</svg>
